<svg xmlns="http://www.w3.org/2000/svg" width="780" height="420" viewBox="0 0 780 420">
<rect width="100%" height="100%" fill="#ffffff"/>
<text x="390.0" y="28" text-anchor="middle" font-family="Arial, sans-serif" font-size="18" font-weight="700">Major-type log-ratio rule</text>
<line x1="75" y1="350" x2="745" y2="350" stroke="#222" stroke-width="1"/>
<line x1="75" y1="55" x2="75" y2="350" stroke="#222" stroke-width="1"/>
<line x1="75" y1="207.5" x2="745" y2="207.5" stroke="#b91c1c" stroke-width="1.5" stroke-dasharray="6 4"/>
<text x="740" y="201.5" text-anchor="end" font-family="Arial, sans-serif" font-size="12" fill="#b91c1c">threshold=0.501</text>
<circle cx="75.0" cy="321.5" r="5.5" fill="#2f6f9f" stroke="#111827" stroke-width="0.6"/>
<text x="75.0" y="372" text-anchor="middle" font-family="Arial, sans-serif" font-size="8" transform="rotate(-65 75.0 372)">13</text>
<circle cx="87.2" cy="319.0" r="5.5" fill="#2f6f9f" stroke="#111827" stroke-width="0.6"/>
<text x="87.2" y="372" text-anchor="middle" font-family="Arial, sans-serif" font-size="8" transform="rotate(-65 87.2 372)">05</text>
<circle cx="99.4" cy="316.8" r="5.5" fill="#2f6f9f" stroke="#111827" stroke-width="0.6"/>
<text x="99.4" y="372" text-anchor="middle" font-family="Arial, sans-serif" font-size="8" transform="rotate(-65 99.4 372)">01</text>
<circle cx="111.5" cy="316.4" r="5.5" fill="#2f6f9f" stroke="#111827" stroke-width="0.6"/>
<text x="111.5" y="372" text-anchor="middle" font-family="Arial, sans-serif" font-size="8" transform="rotate(-65 111.5 372)">04</text>
<circle cx="123.7" cy="315.6" r="5.5" fill="#2f6f9f" stroke="#111827" stroke-width="0.6"/>
<text x="123.7" y="372" text-anchor="middle" font-family="Arial, sans-serif" font-size="8" transform="rotate(-65 123.7 372)">18</text>
<circle cx="135.9" cy="308.5" r="5.5" fill="#2f6f9f" stroke="#111827" stroke-width="0.6"/>
<text x="135.9" y="372" text-anchor="middle" font-family="Arial, sans-serif" font-size="8" transform="rotate(-65 135.9 372)">16</text>
<circle cx="148.1" cy="295.8" r="5.5" fill="#2f6f9f" stroke="#111827" stroke-width="0.6"/>
<text x="148.1" y="372" text-anchor="middle" font-family="Arial, sans-serif" font-size="8" transform="rotate(-65 148.1 372)">12</text>
<circle cx="160.3" cy="294.4" r="5.5" fill="#2f6f9f" stroke="#111827" stroke-width="0.6"/>
<text x="160.3" y="372" text-anchor="middle" font-family="Arial, sans-serif" font-size="8" transform="rotate(-65 160.3 372)">10</text>
<circle cx="172.5" cy="289.2" r="5.5" fill="#2f6f9f" stroke="#111827" stroke-width="0.6"/>
<text x="172.5" y="372" text-anchor="middle" font-family="Arial, sans-serif" font-size="8" transform="rotate(-65 172.5 372)">22</text>
<circle cx="184.6" cy="286.0" r="5.5" fill="#2f6f9f" stroke="#111827" stroke-width="0.6"/>
<text x="184.6" y="372" text-anchor="middle" font-family="Arial, sans-serif" font-size="8" transform="rotate(-65 184.6 372)">09</text>
<circle cx="196.8" cy="260.1" r="5.5" fill="#2f6f9f" stroke="#111827" stroke-width="0.6"/>
<text x="196.8" y="372" text-anchor="middle" font-family="Arial, sans-serif" font-size="8" transform="rotate(-65 196.8 372)">14</text>
<circle cx="209.0" cy="252.0" r="5.5" fill="#2f6f9f" stroke="#111827" stroke-width="0.6"/>
<text x="209.0" y="372" text-anchor="middle" font-family="Arial, sans-serif" font-size="8" transform="rotate(-65 209.0 372)">06</text>
<circle cx="221.2" cy="246.3" r="5.5" fill="#2f6f9f" stroke="#111827" stroke-width="0.6"/>
<text x="221.2" y="372" text-anchor="middle" font-family="Arial, sans-serif" font-size="8" transform="rotate(-65 221.2 372)">03</text>
<circle cx="233.4" cy="246.2" r="5.5" fill="#2f6f9f" stroke="#111827" stroke-width="0.6"/>
<text x="233.4" y="372" text-anchor="middle" font-family="Arial, sans-serif" font-size="8" transform="rotate(-65 233.4 372)">07</text>
<circle cx="245.5" cy="246.1" r="5.5" fill="#2f6f9f" stroke="#111827" stroke-width="0.6"/>
<text x="245.5" y="372" text-anchor="middle" font-family="Arial, sans-serif" font-size="8" transform="rotate(-65 245.5 372)">27</text>
<circle cx="257.7" cy="168.9" r="5.5" fill="#c66b2b" stroke="#111827" stroke-width="0.6"/>
<text x="257.7" y="372" text-anchor="middle" font-family="Arial, sans-serif" font-size="8" transform="rotate(-65 257.7 372)">02</text>
<circle cx="269.9" cy="161.8" r="5.5" fill="#c66b2b" stroke="#111827" stroke-width="0.6"/>
<text x="269.9" y="372" text-anchor="middle" font-family="Arial, sans-serif" font-size="8" transform="rotate(-65 269.9 372)">48</text>
<circle cx="282.1" cy="148.5" r="5.5" fill="#c66b2b" stroke="#111827" stroke-width="0.6"/>
<text x="282.1" y="372" text-anchor="middle" font-family="Arial, sans-serif" font-size="8" transform="rotate(-65 282.1 372)">41</text>
<circle cx="294.3" cy="148.1" r="5.5" fill="#c66b2b" stroke="#111827" stroke-width="0.6"/>
<text x="294.3" y="372" text-anchor="middle" font-family="Arial, sans-serif" font-size="8" transform="rotate(-65 294.3 372)">58</text>
<circle cx="306.5" cy="145.0" r="5.5" fill="#2f6f9f" stroke="#111827" stroke-width="0.6"/>
<text x="306.5" y="372" text-anchor="middle" font-family="Arial, sans-serif" font-size="8" transform="rotate(-65 306.5 372)">21</text>
<circle cx="318.6" cy="143.0" r="5.5" fill="#c66b2b" stroke="#111827" stroke-width="0.6"/>
<text x="318.6" y="372" text-anchor="middle" font-family="Arial, sans-serif" font-size="8" transform="rotate(-65 318.6 372)">11</text>
<circle cx="330.8" cy="141.9" r="5.5" fill="#c66b2b" stroke="#111827" stroke-width="0.6"/>
<text x="330.8" y="372" text-anchor="middle" font-family="Arial, sans-serif" font-size="8" transform="rotate(-65 330.8 372)">29</text>
<circle cx="343.0" cy="140.2" r="5.5" fill="#c66b2b" stroke="#111827" stroke-width="0.6"/>
<text x="343.0" y="372" text-anchor="middle" font-family="Arial, sans-serif" font-size="8" transform="rotate(-65 343.0 372)">34</text>
<circle cx="355.2" cy="139.1" r="5.5" fill="#c66b2b" stroke="#111827" stroke-width="0.6"/>
<text x="355.2" y="372" text-anchor="middle" font-family="Arial, sans-serif" font-size="8" transform="rotate(-65 355.2 372)">20</text>
<circle cx="367.4" cy="135.2" r="5.5" fill="#c66b2b" stroke="#111827" stroke-width="0.6"/>
<text x="367.4" y="372" text-anchor="middle" font-family="Arial, sans-serif" font-size="8" transform="rotate(-65 367.4 372)">36</text>
<circle cx="379.5" cy="132.9" r="5.5" fill="#c66b2b" stroke="#111827" stroke-width="0.6"/>
<text x="379.5" y="372" text-anchor="middle" font-family="Arial, sans-serif" font-size="8" transform="rotate(-65 379.5 372)">54</text>
<circle cx="391.7" cy="131.4" r="5.5" fill="#c66b2b" stroke="#111827" stroke-width="0.6"/>
<text x="391.7" y="372" text-anchor="middle" font-family="Arial, sans-serif" font-size="8" transform="rotate(-65 391.7 372)">26</text>
<circle cx="403.9" cy="131.3" r="5.5" fill="#c66b2b" stroke="#111827" stroke-width="0.6"/>
<text x="403.9" y="372" text-anchor="middle" font-family="Arial, sans-serif" font-size="8" transform="rotate(-65 403.9 372)">28</text>
<circle cx="416.1" cy="130.8" r="5.5" fill="#c66b2b" stroke="#111827" stroke-width="0.6"/>
<text x="416.1" y="372" text-anchor="middle" font-family="Arial, sans-serif" font-size="8" transform="rotate(-65 416.1 372)">30</text>
<circle cx="428.3" cy="130.0" r="5.5" fill="#c66b2b" stroke="#111827" stroke-width="0.6"/>
<text x="428.3" y="372" text-anchor="middle" font-family="Arial, sans-serif" font-size="8" transform="rotate(-65 428.3 372)">44</text>
<circle cx="440.5" cy="127.7" r="5.5" fill="#c66b2b" stroke="#111827" stroke-width="0.6"/>
<text x="440.5" y="372" text-anchor="middle" font-family="Arial, sans-serif" font-size="8" transform="rotate(-65 440.5 372)">49</text>
<circle cx="452.6" cy="125.2" r="5.5" fill="#c66b2b" stroke="#111827" stroke-width="0.6"/>
<text x="452.6" y="372" text-anchor="middle" font-family="Arial, sans-serif" font-size="8" transform="rotate(-65 452.6 372)">33</text>
<circle cx="464.8" cy="124.9" r="5.5" fill="#c66b2b" stroke="#111827" stroke-width="0.6"/>
<text x="464.8" y="372" text-anchor="middle" font-family="Arial, sans-serif" font-size="8" transform="rotate(-65 464.8 372)">32</text>
<circle cx="477.0" cy="124.0" r="5.5" fill="#c66b2b" stroke="#111827" stroke-width="0.6"/>
<text x="477.0" y="372" text-anchor="middle" font-family="Arial, sans-serif" font-size="8" transform="rotate(-65 477.0 372)">37</text>
<circle cx="489.2" cy="123.9" r="5.5" fill="#c66b2b" stroke="#111827" stroke-width="0.6"/>
<text x="489.2" y="372" text-anchor="middle" font-family="Arial, sans-serif" font-size="8" transform="rotate(-65 489.2 372)">19</text>
<circle cx="501.4" cy="122.5" r="5.5" fill="#c66b2b" stroke="#111827" stroke-width="0.6"/>
<text x="501.4" y="372" text-anchor="middle" font-family="Arial, sans-serif" font-size="8" transform="rotate(-65 501.4 372)">47</text>
<circle cx="513.5" cy="122.2" r="5.5" fill="#c66b2b" stroke="#111827" stroke-width="0.6"/>
<text x="513.5" y="372" text-anchor="middle" font-family="Arial, sans-serif" font-size="8" transform="rotate(-65 513.5 372)">51</text>
<circle cx="525.7" cy="122.2" r="5.5" fill="#c66b2b" stroke="#111827" stroke-width="0.6"/>
<text x="525.7" y="372" text-anchor="middle" font-family="Arial, sans-serif" font-size="8" transform="rotate(-65 525.7 372)">42</text>
<circle cx="537.9" cy="119.9" r="5.5" fill="#c66b2b" stroke="#111827" stroke-width="0.6"/>
<text x="537.9" y="372" text-anchor="middle" font-family="Arial, sans-serif" font-size="8" transform="rotate(-65 537.9 372)">46</text>
<circle cx="550.1" cy="119.7" r="5.5" fill="#c66b2b" stroke="#111827" stroke-width="0.6"/>
<text x="550.1" y="372" text-anchor="middle" font-family="Arial, sans-serif" font-size="8" transform="rotate(-65 550.1 372)">38</text>
<circle cx="562.3" cy="119.5" r="5.5" fill="#c66b2b" stroke="#111827" stroke-width="0.6"/>
<text x="562.3" y="372" text-anchor="middle" font-family="Arial, sans-serif" font-size="8" transform="rotate(-65 562.3 372)">52</text>
<circle cx="574.5" cy="118.4" r="5.5" fill="#c66b2b" stroke="#111827" stroke-width="0.6"/>
<text x="574.5" y="372" text-anchor="middle" font-family="Arial, sans-serif" font-size="8" transform="rotate(-65 574.5 372)">56</text>
<circle cx="586.6" cy="118.3" r="5.5" fill="#c66b2b" stroke="#111827" stroke-width="0.6"/>
<text x="586.6" y="372" text-anchor="middle" font-family="Arial, sans-serif" font-size="8" transform="rotate(-65 586.6 372)">53</text>
<circle cx="598.8" cy="118.1" r="5.5" fill="#c66b2b" stroke="#111827" stroke-width="0.6"/>
<text x="598.8" y="372" text-anchor="middle" font-family="Arial, sans-serif" font-size="8" transform="rotate(-65 598.8 372)">43</text>
<circle cx="611.0" cy="116.1" r="5.5" fill="#c66b2b" stroke="#111827" stroke-width="0.6"/>
<text x="611.0" y="372" text-anchor="middle" font-family="Arial, sans-serif" font-size="8" transform="rotate(-65 611.0 372)">39</text>
<circle cx="623.2" cy="116.0" r="5.5" fill="#c66b2b" stroke="#111827" stroke-width="0.6"/>
<text x="623.2" y="372" text-anchor="middle" font-family="Arial, sans-serif" font-size="8" transform="rotate(-65 623.2 372)">57</text>
<circle cx="635.4" cy="114.7" r="5.5" fill="#c66b2b" stroke="#111827" stroke-width="0.6"/>
<text x="635.4" y="372" text-anchor="middle" font-family="Arial, sans-serif" font-size="8" transform="rotate(-65 635.4 372)">45</text>
<circle cx="647.5" cy="112.6" r="5.5" fill="#c66b2b" stroke="#111827" stroke-width="0.6"/>
<text x="647.5" y="372" text-anchor="middle" font-family="Arial, sans-serif" font-size="8" transform="rotate(-65 647.5 372)">08</text>
<circle cx="659.7" cy="112.3" r="5.5" fill="#c66b2b" stroke="#111827" stroke-width="0.6"/>
<text x="659.7" y="372" text-anchor="middle" font-family="Arial, sans-serif" font-size="8" transform="rotate(-65 659.7 372)">40</text>
<circle cx="671.9" cy="107.7" r="5.5" fill="#c66b2b" stroke="#111827" stroke-width="0.6"/>
<text x="671.9" y="372" text-anchor="middle" font-family="Arial, sans-serif" font-size="8" transform="rotate(-65 671.9 372)">50</text>
<circle cx="684.1" cy="105.1" r="5.5" fill="#c66b2b" stroke="#111827" stroke-width="0.6"/>
<text x="684.1" y="372" text-anchor="middle" font-family="Arial, sans-serif" font-size="8" transform="rotate(-65 684.1 372)">31</text>
<circle cx="696.3" cy="97.6" r="5.5" fill="#c66b2b" stroke="#111827" stroke-width="0.6"/>
<text x="696.3" y="372" text-anchor="middle" font-family="Arial, sans-serif" font-size="8" transform="rotate(-65 696.3 372)">35</text>
<circle cx="708.5" cy="96.9" r="5.5" fill="#c66b2b" stroke="#111827" stroke-width="0.6"/>
<text x="708.5" y="372" text-anchor="middle" font-family="Arial, sans-serif" font-size="8" transform="rotate(-65 708.5 372)">23</text>
<circle cx="720.6" cy="90.8" r="5.5" fill="#c66b2b" stroke="#111827" stroke-width="0.6"/>
<text x="720.6" y="372" text-anchor="middle" font-family="Arial, sans-serif" font-size="8" transform="rotate(-65 720.6 372)">25</text>
<circle cx="732.8" cy="89.4" r="5.5" fill="#c66b2b" stroke="#111827" stroke-width="0.6"/>
<text x="732.8" y="372" text-anchor="middle" font-family="Arial, sans-serif" font-size="8" transform="rotate(-65 732.8 372)">55</text>
<circle cx="745.0" cy="83.5" r="5.5" fill="#c66b2b" stroke="#111827" stroke-width="0.6"/>
<text x="745.0" y="372" text-anchor="middle" font-family="Arial, sans-serif" font-size="8" transform="rotate(-65 745.0 372)">24</text>
<text x="410.0" y="402" text-anchor="middle" font-family="Arial, sans-serif" font-size="13">Artifacts sorted by log((PbO+BaO+eps)/(K2O+eps))</text>
<text transform="translate(24 202.5) rotate(-90)" text-anchor="middle" font-family="Arial, sans-serif" font-size="13">log-ratio</text>
<rect x="630" y="58" width="12" height="12" fill="#2f6f9f"/><text x="648" y="69" font-family="Arial, sans-serif" font-size="12">High-K</text>
<rect x="630" y="80" width="12" height="12" fill="#c66b2b"/><text x="648" y="91" font-family="Arial, sans-serif" font-size="12">Lead-Ba</text>
</svg>